<mxfile host="app.diagrams.net" modified="2021-10-18T01:44:41.902Z" agent="5.0 (Windows NT 10.0; Win64; x64) AppleWebKit/537.36 (KHTML, like Gecko) Chrome/94.0.4606.61 Safari/537.36" etag="f_z6GUuCyamrrUbu74rc" version="15.3.8" type="github" pages="2">
  <diagram id="Rl7slQo3gJM8maVv71OM" name="Page-1">
    <mxGraphModel dx="1422" dy="706" grid="1" gridSize="10" guides="1" tooltips="1" connect="1" arrows="1" fold="1" page="1" pageScale="1" pageWidth="1200" pageHeight="1920" math="0" shadow="0">
      <root>
        <mxCell id="0" />
        <mxCell id="1" parent="0" />
        <mxCell id="F1qHn8ZseT5TV-bXeZ68-1" value="&lt;font style=&quot;font-size: 24px&quot; face=&quot;Lucida Console&quot;&gt;5&lt;/font&gt;" style="ellipse;whiteSpace=wrap;html=1;aspect=fixed;fillColor=#f5f5f5;strokeColor=#666666;fontColor=#333333;" parent="1" vertex="1">
          <mxGeometry x="570" y="1450" width="40" height="40" as="geometry" />
        </mxCell>
        <mxCell id="F1qHn8ZseT5TV-bXeZ68-2" value="&lt;font style=&quot;font-size: 24px&quot; face=&quot;Lucida Console&quot;&gt;2&lt;/font&gt;" style="ellipse;whiteSpace=wrap;html=1;aspect=fixed;fillColor=#f5f5f5;strokeColor=#666666;fontColor=#333333;" parent="1" vertex="1">
          <mxGeometry x="220" y="1570" width="40" height="40" as="geometry" />
        </mxCell>
        <mxCell id="F1qHn8ZseT5TV-bXeZ68-4" value="&lt;font style=&quot;font-size: 24px&quot; face=&quot;Lucida Console&quot;&gt;2&lt;/font&gt;" style="ellipse;whiteSpace=wrap;html=1;aspect=fixed;fillColor=#f5f5f5;strokeColor=#666666;fontColor=#333333;" parent="1" vertex="1">
          <mxGeometry x="230" y="1580" width="40" height="40" as="geometry" />
        </mxCell>
        <mxCell id="F1qHn8ZseT5TV-bXeZ68-5" value="&lt;font style=&quot;font-size: 24px&quot; face=&quot;Lucida Console&quot;&gt;2&lt;/font&gt;" style="ellipse;whiteSpace=wrap;html=1;aspect=fixed;fillColor=#f5f5f5;strokeColor=#666666;fontColor=#333333;" parent="1" vertex="1">
          <mxGeometry x="240" y="1590" width="40" height="40" as="geometry" />
        </mxCell>
        <mxCell id="F1qHn8ZseT5TV-bXeZ68-6" value="&lt;font style=&quot;font-size: 24px&quot; face=&quot;Lucida Console&quot;&gt;2&lt;/font&gt;" style="ellipse;whiteSpace=wrap;html=1;aspect=fixed;fillColor=#f5f5f5;strokeColor=#666666;fontColor=#333333;" parent="1" vertex="1">
          <mxGeometry x="250" y="1600" width="40" height="40" as="geometry" />
        </mxCell>
        <mxCell id="F1qHn8ZseT5TV-bXeZ68-7" value="&lt;font style=&quot;font-size: 24px&quot; face=&quot;Lucida Console&quot;&gt;2&lt;/font&gt;" style="ellipse;whiteSpace=wrap;html=1;aspect=fixed;fillColor=#f5f5f5;strokeColor=#666666;fontColor=#333333;" parent="1" vertex="1">
          <mxGeometry x="260" y="1610" width="40" height="40" as="geometry" />
        </mxCell>
        <mxCell id="F1qHn8ZseT5TV-bXeZ68-8" value="&lt;font style=&quot;font-size: 24px&quot; face=&quot;Lucida Console&quot;&gt;2&lt;/font&gt;" style="ellipse;whiteSpace=wrap;html=1;aspect=fixed;fillColor=#f5f5f5;strokeColor=#666666;fontColor=#333333;" parent="1" vertex="1">
          <mxGeometry x="270" y="1620" width="40" height="40" as="geometry" />
        </mxCell>
        <mxCell id="F1qHn8ZseT5TV-bXeZ68-9" value="&lt;font style=&quot;font-size: 24px&quot; face=&quot;Lucida Console&quot;&gt;2&lt;/font&gt;" style="ellipse;whiteSpace=wrap;html=1;aspect=fixed;fillColor=#f5f5f5;strokeColor=#666666;fontColor=#333333;" parent="1" vertex="1">
          <mxGeometry x="280" y="1630" width="40" height="40" as="geometry" />
        </mxCell>
        <mxCell id="F1qHn8ZseT5TV-bXeZ68-10" value="&lt;font style=&quot;font-size: 24px&quot; face=&quot;Lucida Console&quot;&gt;2&lt;/font&gt;" style="ellipse;whiteSpace=wrap;html=1;aspect=fixed;fillColor=#f5f5f5;strokeColor=#666666;fontColor=#333333;" parent="1" vertex="1">
          <mxGeometry x="290" y="1640" width="40" height="40" as="geometry" />
        </mxCell>
        <mxCell id="F1qHn8ZseT5TV-bXeZ68-11" value="&lt;font style=&quot;font-size: 24px&quot; face=&quot;Lucida Console&quot;&gt;2&lt;/font&gt;" style="ellipse;whiteSpace=wrap;html=1;aspect=fixed;fillColor=#f5f5f5;strokeColor=#666666;fontColor=#333333;" parent="1" vertex="1">
          <mxGeometry x="300" y="1650" width="40" height="40" as="geometry" />
        </mxCell>
        <mxCell id="F1qHn8ZseT5TV-bXeZ68-12" value="&lt;font style=&quot;font-size: 24px&quot; face=&quot;Lucida Console&quot;&gt;3&lt;/font&gt;" style="ellipse;whiteSpace=wrap;html=1;aspect=fixed;fillColor=#f5f5f5;strokeColor=#666666;fontColor=#333333;" parent="1" vertex="1">
          <mxGeometry x="440" y="1450" width="40" height="40" as="geometry" />
        </mxCell>
      </root>
    </mxGraphModel>
  </diagram>
  <diagram id="S8-1e3XgyGPjrR7NyzOo" name="Page-2">
    <mxGraphModel dx="1049" dy="587" grid="1" gridSize="10" guides="1" tooltips="1" connect="1" arrows="1" fold="1" page="1" pageScale="1" pageWidth="1200" pageHeight="1920" math="0" shadow="0">
      <root>
        <mxCell id="wgPs-zFj11OqnzduLqw0-0" />
        <mxCell id="wgPs-zFj11OqnzduLqw0-1" parent="wgPs-zFj11OqnzduLqw0-0" />
      </root>
    </mxGraphModel>
  </diagram>
</mxfile>
